<mxfile host="Electron" agent="Mozilla/5.0 (Windows NT 10.0; Win64; x64) AppleWebKit/537.36 (KHTML, like Gecko) draw.io/26.2.15 Chrome/134.0.6998.205 Electron/35.2.1 Safari/537.36" version="26.2.15">
  <diagram name="Page-1" id="ln_7p_03774vy5hUvUmq">
    <mxGraphModel dx="820" dy="552" grid="1" gridSize="10" guides="1" tooltips="1" connect="1" arrows="1" fold="1" page="1" pageScale="1" pageWidth="850" pageHeight="1100" math="0" shadow="0">
      <root>
        <mxCell id="0" />
        <mxCell id="1" parent="0" />
        <mxCell id="K7teY7soaKFBUdWOFVB3-11" style="edgeStyle=orthogonalEdgeStyle;rounded=0;orthogonalLoop=1;jettySize=auto;html=1;exitX=0.5;exitY=1;exitDx=0;exitDy=0;entryX=0.5;entryY=0;entryDx=0;entryDy=0;" edge="1" parent="1" source="K7teY7soaKFBUdWOFVB3-1" target="K7teY7soaKFBUdWOFVB3-3">
          <mxGeometry relative="1" as="geometry" />
        </mxCell>
        <mxCell id="K7teY7soaKFBUdWOFVB3-1" value="card_verificator(card, locationCode, jenisPintu)" style="rounded=1;whiteSpace=wrap;html=1;" vertex="1" parent="1">
          <mxGeometry x="256.5" y="60" width="275" height="40" as="geometry" />
        </mxCell>
        <mxCell id="K7teY7soaKFBUdWOFVB3-7" style="edgeStyle=orthogonalEdgeStyle;rounded=0;orthogonalLoop=1;jettySize=auto;html=1;exitX=0.5;exitY=1;exitDx=0;exitDy=0;entryX=0.5;entryY=0;entryDx=0;entryDy=0;" edge="1" parent="1" source="K7teY7soaKFBUdWOFVB3-3" target="K7teY7soaKFBUdWOFVB3-6">
          <mxGeometry relative="1" as="geometry" />
        </mxCell>
        <mxCell id="K7teY7soaKFBUdWOFVB3-47" value="F" style="edgeLabel;html=1;align=center;verticalAlign=middle;resizable=0;points=[];" vertex="1" connectable="0" parent="K7teY7soaKFBUdWOFVB3-7">
          <mxGeometry x="-0.2444" y="-3" relative="1" as="geometry">
            <mxPoint x="9" as="offset" />
          </mxGeometry>
        </mxCell>
        <mxCell id="K7teY7soaKFBUdWOFVB3-9" style="edgeStyle=orthogonalEdgeStyle;rounded=0;orthogonalLoop=1;jettySize=auto;html=1;entryX=0;entryY=0.5;entryDx=0;entryDy=0;" edge="1" parent="1" source="K7teY7soaKFBUdWOFVB3-3" target="K7teY7soaKFBUdWOFVB3-4">
          <mxGeometry relative="1" as="geometry" />
        </mxCell>
        <mxCell id="K7teY7soaKFBUdWOFVB3-46" value="T" style="edgeLabel;html=1;align=center;verticalAlign=middle;resizable=0;points=[];" vertex="1" connectable="0" parent="K7teY7soaKFBUdWOFVB3-9">
          <mxGeometry x="0.1022" y="7" relative="1" as="geometry">
            <mxPoint x="-5" y="-3" as="offset" />
          </mxGeometry>
        </mxCell>
        <mxCell id="K7teY7soaKFBUdWOFVB3-3" value="card =&lt;div&gt;CARD_NULL&lt;/div&gt;" style="rhombus;whiteSpace=wrap;html=1;" vertex="1" parent="1">
          <mxGeometry x="343" y="150" width="102" height="100" as="geometry" />
        </mxCell>
        <mxCell id="K7teY7soaKFBUdWOFVB3-10" style="edgeStyle=orthogonalEdgeStyle;rounded=0;orthogonalLoop=1;jettySize=auto;html=1;exitX=1;exitY=0.5;exitDx=0;exitDy=0;entryX=0;entryY=0.5;entryDx=0;entryDy=0;" edge="1" parent="1" source="K7teY7soaKFBUdWOFVB3-4" target="K7teY7soaKFBUdWOFVB3-5">
          <mxGeometry relative="1" as="geometry" />
        </mxCell>
        <mxCell id="K7teY7soaKFBUdWOFVB3-4" value="output(ERROR)" style="shape=parallelogram;perimeter=parallelogramPerimeter;whiteSpace=wrap;html=1;fixedSize=1;" vertex="1" parent="1">
          <mxGeometry x="480" y="175" width="120" height="50" as="geometry" />
        </mxCell>
        <mxCell id="K7teY7soaKFBUdWOFVB3-5" value="return STATUS_ERROR" style="rounded=1;whiteSpace=wrap;html=1;" vertex="1" parent="1">
          <mxGeometry x="630" y="175" width="120" height="50" as="geometry" />
        </mxCell>
        <mxCell id="K7teY7soaKFBUdWOFVB3-8" style="edgeStyle=orthogonalEdgeStyle;rounded=0;orthogonalLoop=1;jettySize=auto;html=1;exitX=1;exitY=0.5;exitDx=0;exitDy=0;entryX=0.5;entryY=1;entryDx=0;entryDy=0;" edge="1" parent="1" source="K7teY7soaKFBUdWOFVB3-6" target="K7teY7soaKFBUdWOFVB3-4">
          <mxGeometry relative="1" as="geometry" />
        </mxCell>
        <mxCell id="K7teY7soaKFBUdWOFVB3-48" value="T" style="edgeLabel;html=1;align=center;verticalAlign=middle;resizable=0;points=[];" vertex="1" connectable="0" parent="K7teY7soaKFBUdWOFVB3-8">
          <mxGeometry x="-0.7341" y="-4" relative="1" as="geometry">
            <mxPoint x="5" y="-19" as="offset" />
          </mxGeometry>
        </mxCell>
        <mxCell id="K7teY7soaKFBUdWOFVB3-16" style="edgeStyle=orthogonalEdgeStyle;rounded=0;orthogonalLoop=1;jettySize=auto;html=1;exitX=0.5;exitY=1;exitDx=0;exitDy=0;entryX=0.5;entryY=0;entryDx=0;entryDy=0;" edge="1" parent="1" source="K7teY7soaKFBUdWOFVB3-6" target="K7teY7soaKFBUdWOFVB3-12">
          <mxGeometry relative="1" as="geometry" />
        </mxCell>
        <mxCell id="K7teY7soaKFBUdWOFVB3-49" value="F" style="edgeLabel;html=1;align=center;verticalAlign=middle;resizable=0;points=[];" vertex="1" connectable="0" parent="K7teY7soaKFBUdWOFVB3-16">
          <mxGeometry x="-0.1702" relative="1" as="geometry">
            <mxPoint x="6" as="offset" />
          </mxGeometry>
        </mxCell>
        <mxCell id="K7teY7soaKFBUdWOFVB3-6" value="&lt;font style=&quot;font-size: 10px;&quot;&gt;card[CARD_STATUS]&amp;nbsp;&lt;/font&gt;&lt;div&gt;&lt;font style=&quot;font-size: 10px;&quot;&gt;= -1&lt;/font&gt;&lt;/div&gt;" style="rhombus;whiteSpace=wrap;html=1;" vertex="1" parent="1">
          <mxGeometry x="328" y="280" width="132" height="110" as="geometry" />
        </mxCell>
        <mxCell id="K7teY7soaKFBUdWOFVB3-17" style="edgeStyle=orthogonalEdgeStyle;rounded=0;orthogonalLoop=1;jettySize=auto;html=1;exitX=0;exitY=0.5;exitDx=0;exitDy=0;entryX=0.5;entryY=0;entryDx=0;entryDy=0;" edge="1" parent="1" source="K7teY7soaKFBUdWOFVB3-12" target="K7teY7soaKFBUdWOFVB3-14">
          <mxGeometry relative="1" as="geometry" />
        </mxCell>
        <mxCell id="K7teY7soaKFBUdWOFVB3-20" value="EXIT" style="edgeLabel;html=1;align=center;verticalAlign=middle;resizable=0;points=[];" vertex="1" connectable="0" parent="K7teY7soaKFBUdWOFVB3-17">
          <mxGeometry x="-0.4831" y="2" relative="1" as="geometry">
            <mxPoint x="-2" y="-12" as="offset" />
          </mxGeometry>
        </mxCell>
        <mxCell id="K7teY7soaKFBUdWOFVB3-18" style="edgeStyle=orthogonalEdgeStyle;rounded=0;orthogonalLoop=1;jettySize=auto;html=1;exitX=1;exitY=0.5;exitDx=0;exitDy=0;entryX=0.5;entryY=0;entryDx=0;entryDy=0;" edge="1" parent="1" source="K7teY7soaKFBUdWOFVB3-12" target="K7teY7soaKFBUdWOFVB3-13">
          <mxGeometry relative="1" as="geometry" />
        </mxCell>
        <mxCell id="K7teY7soaKFBUdWOFVB3-19" value="ENTRANCE" style="edgeLabel;html=1;align=center;verticalAlign=middle;resizable=0;points=[];" vertex="1" connectable="0" parent="K7teY7soaKFBUdWOFVB3-18">
          <mxGeometry x="-0.489" relative="1" as="geometry">
            <mxPoint x="4" y="-10" as="offset" />
          </mxGeometry>
        </mxCell>
        <mxCell id="K7teY7soaKFBUdWOFVB3-12" value="jenisPintu" style="rhombus;whiteSpace=wrap;html=1;" vertex="1" parent="1">
          <mxGeometry x="354" y="430" width="80" height="80" as="geometry" />
        </mxCell>
        <mxCell id="K7teY7soaKFBUdWOFVB3-24" style="edgeStyle=orthogonalEdgeStyle;rounded=0;orthogonalLoop=1;jettySize=auto;html=1;exitX=0;exitY=0.5;exitDx=0;exitDy=0;entryX=0.5;entryY=0;entryDx=0;entryDy=0;" edge="1" parent="1" source="K7teY7soaKFBUdWOFVB3-13" target="K7teY7soaKFBUdWOFVB3-15">
          <mxGeometry relative="1" as="geometry" />
        </mxCell>
        <mxCell id="K7teY7soaKFBUdWOFVB3-26" value="≠" style="edgeLabel;html=1;align=center;verticalAlign=middle;resizable=0;points=[];" vertex="1" connectable="0" parent="K7teY7soaKFBUdWOFVB3-24">
          <mxGeometry x="-0.4974" y="-2" relative="1" as="geometry">
            <mxPoint x="-8" y="-13" as="offset" />
          </mxGeometry>
        </mxCell>
        <mxCell id="K7teY7soaKFBUdWOFVB3-44" style="edgeStyle=orthogonalEdgeStyle;rounded=0;orthogonalLoop=1;jettySize=auto;html=1;exitX=0.5;exitY=1;exitDx=0;exitDy=0;entryX=1;entryY=0.5;entryDx=0;entryDy=0;" edge="1" parent="1" source="K7teY7soaKFBUdWOFVB3-13" target="K7teY7soaKFBUdWOFVB3-38">
          <mxGeometry relative="1" as="geometry" />
        </mxCell>
        <mxCell id="K7teY7soaKFBUdWOFVB3-13" value="&lt;font style=&quot;font-size: 10px;&quot;&gt;card&lt;/font&gt;&lt;div&gt;&lt;font style=&quot;font-size: 10px;&quot;&gt;[CARD_HISTORY]&lt;/font&gt;&lt;/div&gt;" style="rhombus;whiteSpace=wrap;html=1;" vertex="1" parent="1">
          <mxGeometry x="500" y="510" width="120" height="110" as="geometry" />
        </mxCell>
        <mxCell id="K7teY7soaKFBUdWOFVB3-23" style="edgeStyle=orthogonalEdgeStyle;rounded=0;orthogonalLoop=1;jettySize=auto;html=1;exitX=1;exitY=0.5;exitDx=0;exitDy=0;entryX=0.5;entryY=0;entryDx=0;entryDy=0;" edge="1" parent="1" source="K7teY7soaKFBUdWOFVB3-14" target="K7teY7soaKFBUdWOFVB3-15">
          <mxGeometry relative="1" as="geometry" />
        </mxCell>
        <mxCell id="K7teY7soaKFBUdWOFVB3-25" value="=" style="edgeLabel;html=1;align=center;verticalAlign=middle;resizable=0;points=[];" vertex="1" connectable="0" parent="K7teY7soaKFBUdWOFVB3-23">
          <mxGeometry x="-0.3703" y="-1" relative="1" as="geometry">
            <mxPoint x="7" y="-16" as="offset" />
          </mxGeometry>
        </mxCell>
        <mxCell id="K7teY7soaKFBUdWOFVB3-27" value="LOCATION_CODE_NULL" style="edgeLabel;html=1;align=center;verticalAlign=middle;resizable=0;points=[];" vertex="1" connectable="0" parent="K7teY7soaKFBUdWOFVB3-23">
          <mxGeometry x="0.6179" y="4" relative="1" as="geometry">
            <mxPoint x="-8" as="offset" />
          </mxGeometry>
        </mxCell>
        <mxCell id="K7teY7soaKFBUdWOFVB3-30" style="edgeStyle=orthogonalEdgeStyle;rounded=0;orthogonalLoop=1;jettySize=auto;html=1;entryX=0.5;entryY=0;entryDx=0;entryDy=0;" edge="1" parent="1" source="K7teY7soaKFBUdWOFVB3-14" target="K7teY7soaKFBUdWOFVB3-29">
          <mxGeometry relative="1" as="geometry" />
        </mxCell>
        <mxCell id="K7teY7soaKFBUdWOFVB3-14" value="&lt;font style=&quot;font-size: 10px;&quot;&gt;card&lt;/font&gt;&lt;div&gt;&lt;font style=&quot;font-size: 10px;&quot;&gt;[CARD_HISTORY]&lt;/font&gt;&lt;/div&gt;" style="rhombus;whiteSpace=wrap;html=1;" vertex="1" parent="1">
          <mxGeometry x="175" y="510" width="120" height="110" as="geometry" />
        </mxCell>
        <mxCell id="K7teY7soaKFBUdWOFVB3-37" style="edgeStyle=orthogonalEdgeStyle;rounded=0;orthogonalLoop=1;jettySize=auto;html=1;exitX=0.5;exitY=1;exitDx=0;exitDy=0;entryX=0.5;entryY=0;entryDx=0;entryDy=0;" edge="1" parent="1" source="K7teY7soaKFBUdWOFVB3-15" target="K7teY7soaKFBUdWOFVB3-35">
          <mxGeometry relative="1" as="geometry" />
        </mxCell>
        <mxCell id="K7teY7soaKFBUdWOFVB3-15" value="output(INVALID)" style="shape=parallelogram;perimeter=parallelogramPerimeter;whiteSpace=wrap;html=1;fixedSize=1;" vertex="1" parent="1">
          <mxGeometry x="327.5" y="630" width="132.5" height="50" as="geometry" />
        </mxCell>
        <mxCell id="K7teY7soaKFBUdWOFVB3-32" style="edgeStyle=orthogonalEdgeStyle;rounded=0;orthogonalLoop=1;jettySize=auto;html=1;exitX=0.5;exitY=1;exitDx=0;exitDy=0;entryX=0.5;entryY=0;entryDx=0;entryDy=0;" edge="1" parent="1" source="K7teY7soaKFBUdWOFVB3-29" target="K7teY7soaKFBUdWOFVB3-31">
          <mxGeometry relative="1" as="geometry" />
        </mxCell>
        <mxCell id="K7teY7soaKFBUdWOFVB3-29" value="&lt;font style=&quot;font-size: 10px;&quot;&gt;dom0&amp;nbsp;← card[CARD_HISTORY] / MAX_LOCAL&lt;/font&gt;&lt;div&gt;&lt;font style=&quot;font-size: 10px;&quot;&gt;dom1&amp;nbsp;← locationCode / MAX_LOCAL&lt;/font&gt;&lt;/div&gt;" style="rounded=0;whiteSpace=wrap;html=1;align=left;" vertex="1" parent="1">
          <mxGeometry x="79.5" y="670" width="220" height="50" as="geometry" />
        </mxCell>
        <mxCell id="K7teY7soaKFBUdWOFVB3-34" style="edgeStyle=orthogonalEdgeStyle;rounded=0;orthogonalLoop=1;jettySize=auto;html=1;exitX=1;exitY=0.5;exitDx=0;exitDy=0;entryX=0;entryY=0.5;entryDx=0;entryDy=0;" edge="1" parent="1" source="K7teY7soaKFBUdWOFVB3-31" target="K7teY7soaKFBUdWOFVB3-33">
          <mxGeometry relative="1" as="geometry" />
        </mxCell>
        <mxCell id="K7teY7soaKFBUdWOFVB3-45" value="T" style="edgeLabel;html=1;align=center;verticalAlign=middle;resizable=0;points=[];" vertex="1" connectable="0" parent="K7teY7soaKFBUdWOFVB3-34">
          <mxGeometry x="-0.2763" y="-6" relative="1" as="geometry">
            <mxPoint y="-21" as="offset" />
          </mxGeometry>
        </mxCell>
        <mxCell id="K7teY7soaKFBUdWOFVB3-41" style="edgeStyle=orthogonalEdgeStyle;rounded=0;orthogonalLoop=1;jettySize=auto;html=1;exitX=0.5;exitY=1;exitDx=0;exitDy=0;entryX=0;entryY=0.5;entryDx=0;entryDy=0;" edge="1" parent="1" source="K7teY7soaKFBUdWOFVB3-31" target="K7teY7soaKFBUdWOFVB3-38">
          <mxGeometry relative="1" as="geometry" />
        </mxCell>
        <mxCell id="K7teY7soaKFBUdWOFVB3-31" value="dom1&lt;div&gt;≠&lt;/div&gt;&lt;div&gt;dom2&amp;nbsp;&lt;/div&gt;" style="rhombus;whiteSpace=wrap;html=1;" vertex="1" parent="1">
          <mxGeometry x="189.5" y="770" width="90" height="90" as="geometry" />
        </mxCell>
        <mxCell id="K7teY7soaKFBUdWOFVB3-36" style="edgeStyle=orthogonalEdgeStyle;rounded=0;orthogonalLoop=1;jettySize=auto;html=1;exitX=0.5;exitY=0;exitDx=0;exitDy=0;entryX=0.5;entryY=1;entryDx=0;entryDy=0;" edge="1" parent="1" source="K7teY7soaKFBUdWOFVB3-33" target="K7teY7soaKFBUdWOFVB3-35">
          <mxGeometry relative="1" as="geometry" />
        </mxCell>
        <mxCell id="K7teY7soaKFBUdWOFVB3-33" value="output(INVALID" style="shape=parallelogram;perimeter=parallelogramPerimeter;whiteSpace=wrap;html=1;fixedSize=1;" vertex="1" parent="1">
          <mxGeometry x="327.5" y="790" width="120" height="50" as="geometry" />
        </mxCell>
        <mxCell id="K7teY7soaKFBUdWOFVB3-35" value="return STATUS_INVALID" style="rounded=1;whiteSpace=wrap;html=1;" vertex="1" parent="1">
          <mxGeometry x="333.75" y="710" width="120" height="50" as="geometry" />
        </mxCell>
        <mxCell id="K7teY7soaKFBUdWOFVB3-38" value="return STATUS_VALID" style="rounded=1;whiteSpace=wrap;html=1;" vertex="1" parent="1">
          <mxGeometry x="333.5" y="880" width="120" height="50" as="geometry" />
        </mxCell>
      </root>
    </mxGraphModel>
  </diagram>
</mxfile>
